<svg id="Layer_1" data-name="Layer 1" xmlns="http://www.w3.org/2000/svg" viewBox="0 0 509.94 511.12"><defs><style>.cls-1{fill:#4472c3;}.cls-2{fill:#2f5596;}.cls-3{fill:#f1f1f1;}.cls-4{fill:#edeef0;}</style></defs><title>3</title><path class="cls-1" d="M506,38c15.72,19.67,20.27,42.21,20.15,67.07-.55,108.87-.22,217.76-.24,326.63,0,50.39-36.83,87.48-87.15,87.51q-167.52.1-335,0A90.41,90.41,0,0,1,49.9,502.2c-16.06-12.92-27.17-29.07-31.59-49.51a91.53,91.53,0,0,1-2.09-19.86V94.53c0-49,37.42-86.25,86.57-86.25q168.18-.16,336.39,0C466,8.17,487.94,18.68,506,38Z" transform="translate(-16.22 -8.2)"/><path class="cls-2" d="M402.87,130.86c2.75.47,4.58,2.44,6.37,4.25,13.07,13.22,26.23,26.36,39,39.87,5.48,5.8,11.1,11.46,16.66,17.18,11.39,11.72,23,23.24,34.19,35.13,6.58,7,13.17,14,20.24,20.44a16.18,16.18,0,0,1,6.73,6.82c0,1.25.11,2.49.11,3.74V438.18c0,35.59-20.76,65-54.32,76.88a76.33,76.33,0,0,1-25.69,4.25H255c-.62,0-1.24-.08-1.86-.12a16.17,16.17,0,0,1-6.8-6.73q-17.57-18.15-35.16-36.29c-18-18.53-36.14-36.91-53.94-55.62-5.68-6-11.53-11.75-17.15-17.77-.7-.75-2.49-1.1-1.61-2.82,1.65-.4,2.89.53,4.15,1.32a49.46,49.46,0,0,0,26.72,7.38H363.86c28.31,0,49.37-21,49.38-49.24q0-97.83,0-195.65a48.3,48.3,0,0,0-8.59-28.21C403.71,134.16,402.31,132.87,402.87,130.86Z" transform="translate(-16.22 -8.2)"/><path class="cls-3" d="M402.87,130.86c9.11,11.4,11.75,24.47,11.68,38.88-.32,63.11-.13,126.23-.14,189.34,0,29.21-21.35,50.71-50.52,50.73q-97.11.06-194.22,0a52.41,52.41,0,0,1-31.2-9.89c-9.31-7.49-15.75-16.85-18.31-28.7a53.06,53.06,0,0,1-1.21-11.51V163.6c0-28.41,21.69-50,50.18-50q97.49-.09,195,0C379.66,113.54,392.39,119.63,402.87,130.86Z" transform="translate(-16.22 -8.2)"/><path class="cls-1" d="M261,223.07H157.16c-9.66,0-13.47-3.76-13.48-13.28V171.93c0-8.5,4.14-12.59,12.7-12.59H365.57c8.89,0,12.85,4,12.85,12.76v39c0,7.8-4.19,12-12.07,12Z" transform="translate(-16.22 -8.2)"/><path class="cls-1" d="M215.92,325.82H157.1c-6,0-7.43-1.42-7.44-7.53,0-5.24-.05-10.49,0-15.73.05-4.07,1.89-6,6-6q60.31,0,120.63,0c4.32,0,6,1.86,6.09,6.25,0,5.49,0,11,0,16.48,0,4.88-1.63,6.48-6.55,6.48Q245.89,325.84,215.92,325.82Z" transform="translate(-16.22 -8.2)"/><path class="cls-1" d="M215.61,275.57H156.8c-5.61,0-7.12-1.52-7.13-7.08V253.88c0-6.09,1.44-7.55,7.45-7.55H275.85c4.83,0,6.5,1.74,6.54,6.57v15.73c0,5.4-1.51,6.93-6.85,6.93Q245.58,275.59,215.61,275.57Z" transform="translate(-16.22 -8.2)"/><path class="cls-1" d="M336.43,242.57h26.22c9.25,0,15,5.76,15,14.92v53.56c0,9-5.73,14.71-14.77,14.74q-26.78.09-53.56,0c-9,0-14.82-5.67-14.87-14.7q-.15-27,0-53.94c0-8.81,5.88-14.51,14.63-14.57C318.16,242.52,327.31,242.57,336.43,242.57Z" transform="translate(-16.22 -8.2)"/><path class="cls-1" d="M347.78,396.29a20.6,20.6,0,0,1-.19-41.19c11-.06,20.36,9.42,20.3,20.7A20.48,20.48,0,0,1,347.78,396.29Z" transform="translate(-16.22 -8.2)"/><path class="cls-1" d="M203.64,374.68a20.57,20.57,0,0,1-20.86,20.11c-11.16-.15-20.37-9.37-20.31-20.32s9.38-20.1,20.51-20.14S203.7,363.6,203.64,374.68Z" transform="translate(-16.22 -8.2)"/><path class="cls-1" d="M286.16,374.55a20.23,20.23,0,1,1-20.35-20.2A20.23,20.23,0,0,1,286.16,374.55Z" transform="translate(-16.22 -8.2)"/><path class="cls-3" d="M370.92,284.77a32.61,32.61,0,0,1-1.38,9.23c-.55,2-1.55,3.72-.36,6,.92,1.78-.51,3.63-2.46,3.79-2.19.18-3.25,1.43-4.49,2.85-13.31,15.43-39.91,12.85-50.07-4.84-1.06-1.84-2.06-2.92-4.39-3.28-4.88-.75-8.29-4.94-8.75-9.91a11,11,0,0,1,6.8-11.38,5.47,5.47,0,0,0,3.5-3.4c6.43-15.79,21.29-23.49,37.85-19.67a5.43,5.43,0,0,0,3.62,0,2.56,2.56,0,0,1,3.47,1l.08.16c1,2.76,3.44,3.83,5.36,5.5A32,32,0,0,1,370.92,284.77Z" transform="translate(-16.22 -8.2)"/><path class="cls-1" d="M358.48,306.3c-1.07-6.55-4-10.12-8.81-11.08-3.64-.72-8.2,1.44-10.21,4.84-2.6,4.38-1.92,8.26,2.31,13.19-5.37,1.68-13.84-.33-19.74-4.87a37.09,37.09,0,0,1-5.15-4.88c-3.63-4.12-3.58-4.17.08-8.21a11.36,11.36,0,0,0-3.25-17.79c-1.51-.8-2.35-1.31-1.66-3.32,4.33-12.68,21.13-21.35,33.91-17.38,1.2.37,2.4.69,3,2,.38.84,1.09,1.65,2,1.57,6.41-.56,9.27,4.34,12.13,8.45,5.64,8.09,6.91,17.27,3,26.32C364.34,299,362.52,303.25,358.48,306.3Z" transform="translate(-16.22 -8.2)"/><path class="cls-4" d="M327.87,268.85c-2.42-.25-4-1.53-4.11-4a4,4,0,0,1,8.06-.15C331.82,267.17,330.25,268.49,327.87,268.85Z" transform="translate(-16.22 -8.2)"/></svg>